<svg width="26" height="26" fill="none" xmlns="http://www.w3.org/2000/svg"><path d="M18.396.05H6.828A6.835 6.835 0 0 0 0 6.876v11.568a6.835 6.835 0 0 0 6.828 6.828h11.568a6.835 6.835 0 0 0 6.827-6.828V6.877A6.835 6.835 0 0 0 18.396.049Zm5.349 18.395c0 2.95-2.4 5.349-5.35 5.349H6.829c-2.95 0-5.35-2.4-5.35-5.349V6.877c0-2.95 2.4-5.349 5.35-5.349h11.568c2.95 0 5.349 2.4 5.349 5.349v11.568Z" fill="#fff"/><path d="M12.612 5.764a6.905 6.905 0 0 0-6.897 6.897 6.905 6.905 0 0 0 6.897 6.897 6.904 6.904 0 0 0 6.897-6.897 6.905 6.905 0 0 0-6.897-6.897Zm0 12.315a5.424 5.424 0 0 1-5.418-5.418 5.424 5.424 0 0 1 5.418-5.418 5.424 5.424 0 0 1 5.418 5.418 5.424 5.424 0 0 1-5.418 5.418Zm7.061-14.764a2.04 2.04 0 0 0-2.037 2.038 2.04 2.04 0 0 0 2.037 2.038 2.04 2.04 0 0 0 2.039-2.038 2.04 2.04 0 0 0-2.039-2.038Zm0 2.597a.56.56 0 1 1 .002-1.12.56.56 0 0 1-.002 1.12Z" fill="#fff"/></svg>