<svg width="26" height="26" fill="none" xmlns="http://www.w3.org/2000/svg"><path d="M21.975 3.632A12.15 12.15 0 0 0 13.326.049c-1.617 0-3.192.313-4.682.93a12.17 12.17 0 0 0-3.967 2.653 12.152 12.152 0 0 0-3.583 8.65c0 1.948.47 3.884 1.361 5.61L.4 23.764c-.145.414-.042.864.269 1.175a1.124 1.124 0 0 0 1.175.268l5.873-2.056a12.269 12.269 0 0 0 5.61 1.361c3.267 0 6.339-1.272 8.65-3.583a12.152 12.152 0 0 0 3.582-8.649c0-3.267-1.272-6.339-3.583-8.65ZM20.93 19.884a10.681 10.681 0 0 1-7.603 3.15 10.78 10.78 0 0 1-5.047-1.257 1.14 1.14 0 0 0-.91-.07l-5.336 1.867 1.868-5.337a1.14 1.14 0 0 0-.07-.908 10.78 10.78 0 0 1-1.257-5.048c0-2.872 1.118-5.572 3.149-7.603 2.03-2.03 4.73-3.15 7.602-3.15h.001c2.872 0 5.572 1.119 7.603 3.15a10.681 10.681 0 0 1 3.15 7.603 10.68 10.68 0 0 1-3.15 7.603Z" fill="#fff"/><path d="M17.538 13.374a1.445 1.445 0 0 0-2.042 0l-.615.615a8.958 8.958 0 0 1-3.598-3.597l.616-.616a1.445 1.445 0 0 0 0-2.04l-1.659-1.66a1.445 1.445 0 0 0-2.04 0L6.872 7.405c-.76.76-.798 2.066-.107 3.678.6 1.4 1.698 2.94 3.092 4.333 1.394 1.394 2.932 2.492 4.332 3.092.767.328 1.463.492 2.066.492.665 0 1.214-.2 1.613-.599l1.327-1.327c.273-.272.423-.635.423-1.02 0-.386-.15-.748-.423-1.02l-1.659-1.66Zm-.715 3.98c-.217.217-.884.293-2.05-.207-1.23-.527-2.605-1.514-3.87-2.778-1.263-1.264-2.25-2.638-2.777-3.87-.5-1.165-.424-1.832-.207-2.05l1.301-1.3 1.607 1.607-.77.77a1.129 1.129 0 0 0-.209 1.315 10.436 10.436 0 0 0 4.584 4.584c.438.223.966.14 1.315-.21l.77-.77 1.608 1.608-1.302 1.301Z" fill="#fff"/></svg>