<?xml version="1.0" encoding="utf-8"?><svg viewBox="0 0 197 53" xmlns="http://www.w3.org/2000/svg" xmlns:xlink="http://www.w3.org/1999/xlink"><style>:root>svg{display:none}:root>svg:target{display:block}</style><svg viewBox="0 0 14 25" id="first--icons--facebook" xmlns="http://www.w3.org/2000/svg"><path d="M8.648 25h-3.95c-.66 0-1.197-.544-1.197-1.213v-9.03H1.196c-.66 0-1.196-.544-1.196-1.213V9.675c0-.669.537-1.213 1.196-1.213h2.305V6.525c0-1.922.595-3.556 1.721-4.727C6.353.622 7.934 0 9.793 0l3.013.005A1.206 1.206 0 0 1 14 1.218V4.81c0 .67-.537 1.213-1.196 1.213h-2.028c-.619 0-.776.126-.81.165-.056.064-.122.245-.122.743v1.531h2.808c.21 0 .416.053.591.153.38.214.616.621.616 1.06l-.002 3.87c0 .668-.536 1.212-1.196 1.212H9.844v9.03c0 .669-.537 1.213-1.196 1.213Zm-3.7-1.466h3.45v-9.433c0-.447.359-.81.799-.81h3.215V9.928H9.198a.805.805 0 0 1-.799-.81V6.931c0-.572.057-1.223.484-1.713.515-.592 1.327-.66 1.893-.66h1.779V1.47l-2.762-.004c-2.988 0-4.845 1.938-4.845 5.059v2.593c0 .447-.358.81-.799.81H1.446v3.363h2.702c.44 0 .8.364.8.81v9.433Zm7.855-22.063Z"/></svg><svg viewBox="0 0 26 26" id="first--icons--instagram" xmlns="http://www.w3.org/2000/svg"><path d="M18.396.05H6.828A6.835 6.835 0 0 0 0 6.876v11.568a6.835 6.835 0 0 0 6.828 6.828h11.568a6.835 6.835 0 0 0 6.827-6.828V6.877A6.835 6.835 0 0 0 18.396.049Zm5.349 18.395c0 2.95-2.4 5.349-5.35 5.349H6.829c-2.95 0-5.35-2.4-5.35-5.349V6.877c0-2.95 2.4-5.349 5.35-5.349h11.568c2.95 0 5.349 2.4 5.349 5.349v11.568Z"/><path d="M12.612 5.764a6.905 6.905 0 0 0-6.897 6.897 6.905 6.905 0 0 0 6.897 6.897 6.904 6.904 0 0 0 6.897-6.897 6.905 6.905 0 0 0-6.897-6.897Zm0 12.315a5.424 5.424 0 0 1-5.418-5.418 5.424 5.424 0 0 1 5.418-5.418 5.424 5.424 0 0 1 5.418 5.418 5.424 5.424 0 0 1-5.418 5.418Zm7.061-14.764a2.04 2.04 0 0 0-2.037 2.038 2.04 2.04 0 0 0 2.037 2.038 2.04 2.04 0 0 0 2.039-2.038 2.04 2.04 0 0 0-2.039-2.038Zm0 2.597a.56.56 0 1 1 .002-1.12.56.56 0 0 1-.002 1.12Z"/></svg><svg viewBox="0 0 25 19" id="first--icons--telegram" xmlns="http://www.w3.org/2000/svg"><path d="M24.794.33a.908.908 0 0 0-1.012-.275L.849 8.3a1.278 1.278 0 0 0-.288 2.259l3.278 2.226c.317.215.726.238 1.066.06l7.11-3.73-5.542 4.116c-.26.193-.415.502-.415.825v3.813a1.078 1.078 0 0 0 1.67.89l2.49-1.642 2.45 1.66a1.296 1.296 0 0 0 1.823-.383L24.866 1.375A.9.9 0 0 0 24.794.33ZM13.34 17.469l-2.536-1.72a1.036 1.036 0 0 0-1.155-.008l-2.126 1.403V14.27L17.31 7c.437-.324.547-.915.256-1.374a1.03 1.03 0 0 0-1.358-.36L4.451 11.434 1.678 9.55l21.118-7.59-9.456 15.509Z"/></svg><svg viewBox="0 0 26 26" id="first--icons--whatsapp" xmlns="http://www.w3.org/2000/svg"><path d="M21.975 3.632A12.15 12.15 0 0 0 13.326.049c-1.617 0-3.192.313-4.682.93a12.17 12.17 0 0 0-3.967 2.653 12.152 12.152 0 0 0-3.583 8.65c0 1.948.47 3.884 1.361 5.61L.4 23.764c-.145.414-.042.864.269 1.175a1.124 1.124 0 0 0 1.175.268l5.873-2.056a12.269 12.269 0 0 0 5.61 1.361c3.267 0 6.339-1.272 8.65-3.583a12.152 12.152 0 0 0 3.582-8.649c0-3.267-1.272-6.339-3.583-8.65ZM20.93 19.884a10.681 10.681 0 0 1-7.603 3.15 10.78 10.78 0 0 1-5.047-1.257 1.14 1.14 0 0 0-.91-.07l-5.336 1.867 1.868-5.337a1.14 1.14 0 0 0-.07-.908 10.78 10.78 0 0 1-1.257-5.048c0-2.872 1.118-5.572 3.149-7.603 2.03-2.03 4.73-3.15 7.602-3.15h.001c2.872 0 5.572 1.119 7.603 3.15a10.681 10.681 0 0 1 3.15 7.603 10.68 10.68 0 0 1-3.15 7.603Z"/><path d="M17.538 13.374a1.445 1.445 0 0 0-2.042 0l-.615.615a8.958 8.958 0 0 1-3.598-3.597l.616-.616a1.445 1.445 0 0 0 0-2.04l-1.659-1.66a1.445 1.445 0 0 0-2.04 0L6.872 7.405c-.76.76-.798 2.066-.107 3.678.6 1.4 1.698 2.94 3.092 4.333 1.394 1.394 2.932 2.492 4.332 3.092.767.328 1.463.492 2.066.492.665 0 1.214-.2 1.613-.599l1.327-1.327c.273-.272.423-.635.423-1.02 0-.386-.15-.748-.423-1.02l-1.659-1.66Zm-.715 3.98c-.217.217-.884.293-2.05-.207-1.23-.527-2.605-1.514-3.87-2.778-1.263-1.264-2.25-2.638-2.777-3.87-.5-1.165-.424-1.832-.207-2.05l1.301-1.3 1.607 1.607-.77.77a1.129 1.129 0 0 0-.209 1.315 10.436 10.436 0 0 0 4.584 4.584c.438.223.966.14 1.315-.21l.77-.77 1.608 1.608-1.302 1.301Z"/></svg><svg viewBox="0 0 197 53" id="header--logo" xmlns="http://www.w3.org/2000/svg"><path d="M6.876 12.252H10.8l6.228 29.16h-3.852l-1.332-7.344h-5.94L4.5 41.412H.684l6.192-29.16Zm4.428 18.9-2.448-13.14-2.412 13.14h4.86Zm16.207 10.584c-2.04 0-3.636-.408-4.788-1.224-1.128-.816-1.908-1.956-2.34-3.42-.432-1.464-.648-3.3-.648-5.508V12.252h3.888v19.512c0 2.208.252 3.888.756 5.04.528 1.152 1.572 1.728 3.132 1.728s2.592-.576 3.096-1.728c.528-1.152.792-2.832.792-5.04V12.252h3.852v19.332c0 2.208-.216 4.044-.648 5.508-.432 1.464-1.212 2.604-2.34 3.42-1.128.816-2.712 1.224-4.752 1.224Zm15.227-26.46h-4.932v-3.024h13.788v3.024h-4.788v26.136h-4.068V15.276Zm19.119 26.46c-2.856 0-4.908-.804-6.156-2.412-1.224-1.632-1.836-3.984-1.836-7.056V21.216c0-3.024.624-5.316 1.872-6.876 1.248-1.56 3.288-2.34 6.12-2.34 2.832 0 4.86.792 6.084 2.376 1.248 1.56 1.872 3.84 1.872 6.84v11.088c0 3.024-.624 5.352-1.872 6.984-1.248 1.632-3.276 2.448-6.084 2.448Zm0-3.204c1.512 0 2.532-.444 3.06-1.332.528-.888.792-2.232.792-4.032v-12.78c0-1.776-.264-3.084-.792-3.924-.528-.864-1.548-1.296-3.06-1.296-1.536 0-2.568.432-3.096 1.296-.528.84-.792 2.148-.792 3.924v12.78c0 1.8.264 3.144.792 4.032.528.888 1.56 1.332 3.096 1.332Zm20.18-26.28h11.304v3.024h-7.235v9.648h5.868v2.88h-5.868v10.692h7.308v2.916H82.037v-29.16Zm18.945 13.896-5.976-13.896h3.78l4.428 10.296 4.032-10.296h3.78l-6.12 14.22 6.408 14.94h-3.78l-4.752-10.98-4.104 10.98h-3.78l6.084-15.264Zm13.083-13.896h7.236c2.52 0 4.344.684 5.472 2.052 1.152 1.368 1.728 3.372 1.728 6.012 0 2.376-.612 4.224-1.836 5.544-1.224 1.32-3 1.98-5.328 1.98h-3.204v13.572h-4.068v-29.16Zm5.94 12.672c1.2 0 2.124-.132 2.772-.396a2.524 2.524 0 0 0 1.44-1.368c.288-.648.432-1.584.432-2.808 0-1.488-.108-2.58-.324-3.276-.216-.696-.648-1.188-1.296-1.476-.624-.288-1.62-.432-2.988-.432h-1.908v9.756h1.872Zm11.357-12.672h5.868c2.952 0 5.112.612 6.48 1.836 1.392 1.2 2.088 3.168 2.088 5.904 0 3.744-1.2 6.012-3.6 6.804l4.14 14.616h-3.924l-3.816-13.68h-3.168v13.68h-4.068v-29.16Zm5.616 12.564c1.752 0 3-.348 3.744-1.044.768-.696 1.152-1.956 1.152-3.78 0-1.2-.132-2.136-.396-2.808a2.638 2.638 0 0 0-1.404-1.512c-.672-.336-1.62-.504-2.844-.504h-1.8v9.648h1.548Zm13.052-12.564h11.304v3.024h-7.236v9.648h5.868v2.88h-5.868v10.692h7.308v2.916H150.03v-29.16Zm21.536 29.484c-2.448 0-4.32-.756-5.616-2.268-1.272-1.512-1.98-3.588-2.124-6.228l3.6-.972c.12 1.872.48 3.384 1.08 4.536.624 1.152 1.644 1.728 3.06 1.728 1.056 0 1.848-.288 2.376-.864.552-.6.828-1.452.828-2.556 0-1.2-.252-2.196-.756-2.988-.504-.792-1.308-1.668-2.412-2.628l-4.896-4.32c-.984-.864-1.704-1.788-2.16-2.772-.432-1.008-.648-2.232-.648-3.672 0-2.136.612-3.792 1.836-4.968 1.224-1.176 2.892-1.764 5.004-1.764 2.304 0 4.044.612 5.22 1.836 1.176 1.224 1.884 3.12 2.124 5.688l-3.456.936c-.12-1.704-.456-3.012-1.008-3.924-.528-.936-1.488-1.404-2.88-1.404-1.032 0-1.824.276-2.376.828-.552.528-.828 1.32-.828 2.376 0 .864.144 1.596.432 2.196.288.576.78 1.164 1.476 1.764l4.932 4.32c1.272 1.128 2.28 2.352 3.024 3.672.768 1.32 1.152 2.82 1.152 4.5 0 2.136-.648 3.828-1.944 5.076-1.296 1.248-2.976 1.872-5.04 1.872Zm17.016 0c-2.448 0-4.32-.756-5.616-2.268-1.272-1.512-1.98-3.588-2.124-6.228l3.6-.972c.12 1.872.48 3.384 1.08 4.536.624 1.152 1.644 1.728 3.06 1.728 1.056 0 1.848-.288 2.376-.864.552-.6.828-1.452.828-2.556 0-1.2-.252-2.196-.756-2.988-.504-.792-1.308-1.668-2.412-2.628l-4.896-4.32c-.984-.864-1.704-1.788-2.16-2.772-.432-1.008-.648-2.232-.648-3.672 0-2.136.612-3.792 1.836-4.968 1.224-1.176 2.892-1.764 5.004-1.764 2.304 0 4.044.612 5.22 1.836 1.176 1.224 1.884 3.12 2.124 5.688l-3.456.936c-.12-1.704-.456-3.012-1.008-3.924-.528-.936-1.488-1.404-2.88-1.404-1.032 0-1.824.276-2.376.828-.552.528-.828 1.32-.828 2.376 0 .864.144 1.596.432 2.196.288.576.78 1.164 1.476 1.764l4.932 4.32c1.272 1.128 2.28 2.352 3.024 3.672.768 1.32 1.152 2.82 1.152 4.5 0 2.136-.648 3.828-1.944 5.076-1.296 1.248-2.976 1.872-5.04 1.872ZM0 5.5h80m-80 43h80"/></svg></svg>